<?xml version="1.0" standalone="no"?>
<!DOCTYPE svg PUBLIC "-//W3C//DTD SVG 20010904//EN"
 "http://www.w3.org/TR/2001/REC-SVG-20010904/DTD/svg10.dtd">
<svg version="1.0" xmlns="http://www.w3.org/2000/svg"
 width="616.000000pt" height="642.000000pt" viewBox="0 0 616.000000 642.000000"
 preserveAspectRatio="xMidYMid meet">
<metadata>
Created by potrace 1.16, written by Peter Selinger 2001-2019
</metadata>
<g transform="translate(0.000000,642.000000) scale(0.100000,-0.100000)"
fill="#000000" stroke="none">
<path d="M1670 6129 c-166 -14 -384 -81 -571 -174 -317 -160 -579 -464 -693
-805 -19 -58 -47 -162 -61 -232 l-25 -128 3 -1627 3 -1628 22 -95 c30 -134 57
-211 107 -316 127 -263 356 -504 618 -648 82 -45 270 -108 409 -136 102 -21
115 -21 1543 -20 1371 1 1530 4 1680 30 85 16 297 87 380 127 280 139 534 408
656 693 46 108 87 283 98 421 7 84 8 626 2 1699 l-8 1575 -31 117 c-37 138
-106 312 -164 412 -88 153 -271 355 -418 462 -130 95 -331 188 -505 234 -193
51 -175 50 -1610 49 -737 -1 -1383 -5 -1435 -10z m2870 -273 c190 -38 415
-134 552 -236 190 -143 365 -391 433 -614 57 -186 54 -119 61 -1786 6 -1688 8
-1631 -51 -1835 -83 -288 -289 -538 -550 -668 -80 -40 -256 -103 -340 -122
-92 -21 -323 -24 -1594 -25 -1373 -2 -1398 -1 -1496 19 -267 55 -466 155 -631
320 -179 176 -263 333 -327 606 -21 89 -21 107 -24 1529 -3 860 0 1508 6 1610
19 338 109 572 306 798 163 187 421 339 670 395 116 26 366 30 1660 28 1120
-2 1248 -4 1325 -19z"/>
<path d="M2874 5645 c-172 -26 -401 -95 -519 -156 -264 -137 -511 -349 -642
-552 -55 -84 -144 -269 -173 -357 -11 -36 -30 -112 -42 -168 -28 -139 -32
-135 160 -144 81 -3 157 -7 170 -7 12 -1 22 -7 22 -16 0 -8 -10 -17 -22 -19
-13 -2 -60 -11 -105 -19 -154 -28 -256 -96 -312 -208 -39 -77 -47 -161 -27
-257 28 -136 108 -237 224 -284 l57 -23 590 0 c513 1 600 3 664 17 68 15 77
16 115 1 23 -9 59 -15 81 -14 59 4 160 4 807 -4 559 -7 589 -7 639 11 71 25
165 114 204 191 28 54 30 65 30 173 0 110 -2 119 -33 182 -61 124 -164 195
-323 223 -142 25 -126 34 86 50 112 8 169 16 175 24 15 26 -34 234 -87 361
-88 214 -243 429 -423 582 -255 218 -506 342 -812 399 -145 27 -378 34 -504
14z m468 -240 c48 -8 135 -32 195 -53 342 -123 607 -337 787 -636 32 -54 116
-251 116 -274 0 -11 -2670 -16 -2688 -4 -26 18 80 268 169 397 67 98 255 278
366 351 194 128 418 209 653 238 67 8 315 -3 402 -19z m468 -1204 c0 -14 -96
-92 -275 -221 -93 -68 -201 -148 -240 -179 -98 -80 -171 -131 -184 -131 -18 0
-122 72 -246 170 -60 48 -164 127 -230 176 -152 114 -245 186 -245 191 0 1
320 3 710 3 401 0 710 -4 710 -9z m-1509 -203 c68 -55 184 -145 331 -255 65
-48 118 -94 118 -100 0 -15 37 -14 -559 -15 l-453 0 -42 28 c-86 61 -113 183
-57 261 16 22 44 51 63 64 32 23 43 24 267 32 129 4 241 12 250 17 24 14 25
13 82 -32z m2075 6 c86 -7 124 -27 164 -91 54 -85 31 -204 -48 -258 l-37 -25
-421 0 c-426 0 -577 6 -572 22 2 5 33 30 69 56 86 62 176 128 313 230 l111 82
175 -5 c96 -3 207 -8 246 -11z"/>
<path d="M3034 5281 c-44 -27 -64 -59 -64 -104 0 -96 108 -151 179 -92 73 62
60 165 -26 201 -42 18 -52 18 -89 -5z"/>
<path d="M2629 5156 c-56 -32 -77 -113 -44 -176 55 -107 208 -63 223 65 4 38
1 47 -30 80 -27 30 -42 38 -78 41 -28 3 -55 -1 -71 -10z"/>
<path d="M3425 5156 c-37 -16 -53 -35 -65 -77 -29 -99 76 -198 168 -160 16 7
39 30 52 53 40 72 11 151 -67 184 -39 17 -50 17 -88 0z"/>
<path d="M2214 4844 c-47 -50 -50 -106 -7 -163 27 -34 92 -70 130 -71 29 0 77
42 98 86 24 50 8 100 -45 148 -35 31 -46 36 -91 36 -46 0 -55 -4 -85 -36z"/>
<path d="M3850 4845 c-14 -8 -43 -20 -65 -26 -62 -17 -85 -44 -85 -99 0 -81
51 -120 158 -120 56 0 102 20 135 59 48 57 48 127 0 175 -20 21 -35 26 -72 26
-25 -1 -57 -7 -71 -15z"/>
<path d="M3013 4831 c-43 -27 -56 -55 -50 -108 5 -50 41 -96 88 -112 57 -20
139 54 139 126 0 24 -9 43 -33 69 -41 45 -96 55 -144 25z"/>
<path d="M3030 3370 c-80 -4 -451 -8 -824 -7 l-679 0 -19 -23 c-22 -27 -22
-43 -3 -152 44 -251 183 -451 386 -553 142 -71 107 -69 1252 -61 l1017 6 66
25 c131 49 268 149 327 238 51 77 92 186 121 326 31 144 31 143 8 171 l-18 22
-704 4 c-388 2 -723 5 -745 7 -22 2 -105 1 -185 -3z m1384 -237 c-27 -118
-119 -233 -232 -286 l-67 -32 -989 -8 c-980 -8 -990 -8 -1056 12 -81 25 -164
79 -216 141 -34 41 -94 156 -94 180 0 11 220 13 1758 18 l903 3 -7 -28z"/>
<path d="M4523 2369 l-33 -10 -1 -152 c-1 -151 -10 -169 -24 -44 l-7 58 -31
-7 c-60 -12 -175 -77 -237 -133 -72 -63 -144 -167 -186 -268 -27 -63 -29 -77
-28 -198 0 -116 3 -139 28 -210 50 -146 111 -226 235 -307 100 -66 208 -99
340 -106 192 -9 315 39 451 177 89 90 129 154 170 271 32 90 38 235 15 330
-22 89 -102 225 -175 296 -58 57 -206 139 -271 150 l-36 6 -7 -84 c-4 -47 -4
-91 -1 -99 3 -8 35 -32 71 -54 84 -51 147 -120 175 -193 19 -48 23 -77 24
-177 0 -114 -2 -123 -30 -179 -41 -81 -106 -146 -190 -187 -67 -32 -75 -34
-180 -34 -102 0 -115 2 -175 31 -118 56 -170 120 -204 251 -43 164 8 340 126
436 54 44 144 97 152 90 3 -4 6 -64 6 -134 0 -106 3 -130 18 -148 19 -23 93
-38 136 -27 45 11 49 33 36 215 -8 124 -8 189 0 256 25 195 25 181 -1 188 -34
9 -128 7 -166 -4z"/>
<path d="M3008 2232 l-43 -41 1 -605 c2 -663 -1 -633 60 -673 58 -37 132 -1
155 77 7 23 9 233 7 610 -3 530 -4 578 -21 603 -20 31 -51 53 -89 62 -22 6
-34 0 -70 -33z"/>
<path d="M2604 2241 c-68 -41 -64 -5 -64 -646 0 -353 4 -594 10 -616 28 -101
134 -113 195 -20 l25 38 -2 591 -3 590 -25 27 c-27 29 -71 55 -92 55 -7 0 -27
-9 -44 -19z"/>
<path d="M3468 2245 c-14 -8 -36 -30 -47 -49 -21 -33 -21 -42 -21 -610 0 -621
0 -615 52 -664 14 -12 41 -25 61 -29 33 -5 41 -1 77 35 l40 40 0 604 c0 665 4
625 -64 667 -39 24 -61 26 -98 6z"/>
<path d="M1543 2143 c-40 -8 -42 -20 -32 -196 5 -93 7 -173 4 -178 -4 -5 -28
-9 -54 -9 -66 0 -76 -14 -76 -111 1 -97 16 -119 81 -119 l43 0 3 -181 c3 -176
4 -181 27 -200 34 -27 123 -27 152 2 18 18 19 28 14 87 -3 37 -6 119 -8 182
l-2 115 37 3 c51 4 68 31 68 108 0 72 -16 98 -70 112 l-35 8 -3 181 -2 181
-32 11 c-31 11 -72 12 -115 4z"/>
<path d="M1115 2057 c-70 -40 -71 -105 -3 -147 36 -22 103 -26 141 -9 13 6 31
23 40 39 26 43 21 78 -14 111 -40 37 -105 40 -164 6z"/>
<path d="M1943 2055 c-71 -31 -69 -116 4 -154 12 -6 45 -11 73 -11 40 0 56 5
75 24 52 53 41 113 -27 140 -47 19 -83 20 -125 1z"/>
<path d="M1055 1751 c-36 -22 -65 -62 -65 -91 0 -68 66 -120 151 -120 72 0
113 15 135 48 23 36 23 116 -1 142 -38 42 -167 54 -220 21z"/>
<path d="M1963 1759 c-67 -20 -85 -132 -29 -188 24 -24 35 -26 116 -29 l90 -4
35 35 c104 104 -45 234 -212 186z"/>
<path d="M1099 1351 c-31 -31 -38 -75 -19 -112 29 -52 138 -66 188 -24 82 69
31 165 -88 165 -44 0 -56 -4 -81 -29z"/>
<path d="M1938 1350 c-26 -27 -30 -36 -25 -67 8 -44 29 -69 74 -84 81 -26 163
13 163 78 0 69 -43 103 -130 103 -44 0 -56 -4 -82 -30z"/>
<path d="M22 861 l-2 -854 2303 6 c1266 4 2643 7 3060 7 l757 0 -1 748 c-1
520 -5 724 -11 672 -13 -106 -15 -174 -3 -182 5 -4 6 -10 2 -14 -3 -4 -13 -2
-20 5 -12 9 -18 -4 -37 -71 -39 -143 -142 -343 -248 -483 -62 -82 -243 -259
-333 -326 -140 -105 -325 -198 -500 -254 -150 -47 -259 -66 -434 -75 -220 -12
-2800 -12 -2970 0 -155 10 -268 34 -435 90 -261 87 -490 243 -711 485 -90 99
-109 125 -197 272 -132 218 -202 468 -215 763 -2 36 -4 -319 -5 -789z"/>
</g>
</svg>
